<?xml version="1.0" encoding="UTF-8"?>
<svg version="1.1" viewBox="0 0 24 24" xmlns="http://www.w3.org/2000/svg">
<path d="m12 20.334c-4.6043 0-8.3332-3.7292-8.3332-8.3336 0-4.6043 3.7292-8.3336 8.3332-8.3336 4.6043 0 8.3336 3.7292 8.3336 8.3336 0 4.6043-3.7293 8.3336-8.3336 8.3336zm1.89e-4 -18.334c-5.5201 0-10 4.4799-10 10 0 5.5201 4.4799 10 10 10 5.5201 0 10-4.4799 10-10 0-5.5201-4.4799-10-10-10zm3.9391 6.6668-4.5461 4.8469-2.3165-2.6956-1.2429 1.2251 3.5595 4.1235 5.6074-6.0095z" fill="#000000" />
</svg>
