<?xml version="1.0" encoding="UTF-8"?>
<svg version="1.1" viewBox="0 0 22 22" xmlns="http://www.w3.org/2000/svg">
<mask x="0" y="0" width="24" height="24" fill="#000000" maskUnits="userSpaceOnUse">
<rect width="24" height="24" fill="#fff"/>
<path d="m12 22c5.5228 0 10-4.4772 10-10s-4.4772-10-10-10-10 4.4772-10 10 4.4772 10 10 10zm-0.0038-12.34 3.2167-3.2152 2.343 2.3414-3.2168 3.2144 3.2168 3.2144-2.343 2.3409-3.2167-3.2135-3.2093 3.2044-2.3421-2.341 3.2068-3.2052-3.2068-3.2049 2.3421-2.3414z" clip-rule="evenodd" fill-rule="evenodd"/>
</mask>
<path d="m11 21c5.5228 0 10-4.4772 10-10s-4.4772-10-10-10-10 4.4772-10 10 4.4772 10 10 10zm-0.0038-12.34 3.2167-3.2152 2.343 2.3414-3.2168 3.2144 3.2168 3.2144-2.343 2.3409-3.2167-3.2135-3.2093 3.2044-2.3421-2.341 3.2068-3.2052-3.2068-3.2049 2.3421-2.3414z" clip-rule="evenodd" fill-rule="evenodd"/>
<path d="m14.213 5.4444-3.2168 3.2152-3.2092-3.2057-2.3421 2.3414 3.2068 3.2048-3.2068 3.2053 2.3421 2.3409 3.2092-3.2044 3.2168 3.2136 2.3429-2.341-3.2167-3.2144 3.2167-3.2144z" clip-rule="evenodd" fill="#fff" fill-rule="evenodd"/>
</svg>
