<?xml version="1.0" encoding="UTF-8"?>
<svg version="1.1" viewBox="0 0 24 24" xmlns="http://www.w3.org/2000/svg">
<path d="m12 4.5c4.1438 0 7.5 3.3562 7.5 7.5s-3.3562 7.5-7.5 7.5-7.5-3.3562-7.5-7.5 3.3562-7.5 7.5-7.5zm10 7.5c0-5.52-4.47-10-9.99-10-5.53 0-10.01 4.48-10.01 10s4.48 10 10.01 10c5.52 0 9.99-4.48 9.99-10zm-8.75-1.25h-2.5v6.25h2.5zm0-3.75h-2.5v2.5h2.5z" fill="#000"/>
<path d="m12 4.5c-4.1438 0-7.5 3.3562-7.5 7.5s3.3562 7.5 7.5 7.5 7.5-3.3562 7.5-7.5-3.3562-7.5-7.5-7.5zm-1.25 2.5h2.5v2.5h-2.5zm0 3.75h2.5v6.25h-2.5z" fill="#fff"/>
</svg>
