<svg width="12" height="13" viewBox="0 0 12 13" xmlns="http://www.w3.org/2000/svg"><title> Fill 1</title><desc> Created with Sketch.</desc><g fill="none"><g fill="#303030"><path d="M1.4 4C1.6 7.9 3.9 10.5 6 11.5 7.6 10.8 10.4 8.4 10.6 4L6 1.5 1.4 4ZM6 13C5.9 13 5.7 13 5.6 12.9 5.6 12.9 5.5 12.9 5.5 12.9 2.8 11.7 0 8.4 0 3.6L0 3.2 5.5 0.1 5.6 0.1C5.9 0 6.1 0 6.4 0.1L6.6 0.2 12 3.2 12 3.6C12 6 11.3 8.1 10 9.9 9.1 11.2 7.7 12.3 6.5 12.9 6.5 12.9 6.4 12.9 6.4 12.9 6.2 13 6.1 13 6 13L6 13Z"/></g></g></svg>