<?xml version="1.0" encoding="UTF-8"?>
<svg version="1.1" viewBox="0 0 15 17" xmlns="http://www.w3.org/2000/svg">
<!--
SPDX-License-Identifier: Apache-2.0
Based on Material Icons Sharp: Action -> Delete Forever
-->
<path d="m5.4668 1.7773-0.61133 0.61133h-2.8555v3.666h0.61133v9.168h9.7773v-9.168h0.61133v-3.666h-2.8555l-0.61133-0.61133zm0.73242 5.7871 1.3008 1.2949 1.2949-1.2949 0.86328 0.86133-1.2969 1.2969 1.2969 1.2949-0.86328 0.86133-1.2949-1.2949-1.2949 1.2949-0.86133-0.86133 1.2949-1.2949-1.3027-1.2969z" fill="#eee"/>
<path d="m5.9727 3-0.61133 0.61133h-2.1387v1.2207h8.5547v-1.2207h-2.1387l-0.61133-0.61133zm-2.1387 2.4434v8.5566h7.332v-8.5566zm2.3652 2.1211 1.3008 1.2949 1.2949-1.2949 0.86328 0.86133-1.2969 1.2969 1.2969 1.2949-0.86328 0.86133-1.2949-1.2949-1.2949 1.2949-0.86133-0.86133 1.2949-1.2949-1.3027-1.2969z" fill="#000"/>
</svg>
